<svg width="36" height="30" viewBox="0 0 36 30" fill="none" xmlns="http://www.w3.org/2000/svg">
<path fill-rule="evenodd" clip-rule="evenodd" d="M35.9998 4.53075C30.7077 7.04703 28.0617 10.0036 28.0617 13.4006C30.3173 13.6522 32.1826 14.5434 33.6574 16.0741C35.1323 17.6049 35.8697 19.3767 35.8697 21.3897C35.8697 23.5286 35.154 25.3319 33.7225 26.7997C32.291 28.2676 30.4908 29.0015 28.3219 29.0015C25.8928 29.0015 23.7889 28.0474 22.0104 26.1392C20.2319 24.231 19.3427 21.914 19.3427 19.188C19.3427 11.0101 24.0708 4.61465 33.5273 0.00146484L35.9998 4.53075ZM17.3236 4.53075C11.9881 7.04703 9.32041 10.0036 9.32041 13.4006C11.6195 13.6522 13.5064 14.5434 14.9812 16.0741C16.4561 17.6049 17.1935 19.3767 17.1935 21.3897C17.1935 23.5286 16.4669 25.3319 15.0138 26.7997C13.5606 28.2676 11.7496 29.0015 9.58068 29.0015C7.1515 29.0015 5.05853 28.0474 3.30172 26.1392C1.5449 24.231 0.666504 21.914 0.666504 19.188C0.666504 11.0101 5.37297 4.61465 14.786 0.00146484L17.3236 4.53075Z" fill="url(#paint0_linear_322_8868)"/>
<defs>
<linearGradient id="paint0_linear_322_8868" x1="18.3332" y1="0.00146484" x2="18.3332" y2="29.0015" gradientUnits="userSpaceOnUse">
<stop stop-color="#00f875"/>
<stop offset="1" stop-color="#00f875"/>
</linearGradient>
</defs>
</svg>
