<svg width="156" height="50" viewBox="0 0 156 50" fill="none" xmlns="http://www.w3.org/2000/svg">
<path fill-rule="evenodd" clip-rule="evenodd" d="M0 7.90413V32.9009C0 35.9051 1.68139 38.6497 4.33916 39.9835L23.1161 50L42.1835 40.0567C44.6805 38.6686 46.2322 36.0129 46.2322 33.1278V7.90413C46.2322 3.5388 42.7383 0 38.4283 0H7.80391C3.49393 0 0 3.5388 0 7.90413Z" fill="white"/>
<mask id="mask0_279_9469" style="mask-type:alpha" maskUnits="userSpaceOnUse" x="0" y="0" width="24" height="50">
<path d="M0 0H23.1161V49.9999H0V0Z" fill="white"/>
</mask>
<g mask="url(#mask0_279_9469)">
<path fill-rule="evenodd" clip-rule="evenodd" d="M7.80391 0H23.1161V50L4.04867 40.057C1.55171 38.6688 0 36.0129 0 33.1278V7.90413C0 3.5388 3.49393 0 7.80391 0Z" fill="white"/>
</g>
<path fill-rule="evenodd" clip-rule="evenodd" d="M69.4998 28.4049C69.4998 30.5774 68.7023 32.2724 67.109 33.49C65.5148 34.7073 63.1677 35.3171 60.0672 35.3171C58.8501 35.3171 57.7416 35.229 56.7417 35.053C55.742 34.8769 54.8794 34.6127 54.1555 34.2604C53.4306 33.9081 52.8656 33.4679 52.4601 32.9396C52.0539 32.4112 51.8514 31.795 51.8514 31.0906C51.8514 30.4453 51.9818 29.8951 52.2427 29.4395C52.5035 28.9849 52.8361 28.6107 53.2426 28.3168C54.0827 28.8163 55.0389 29.2568 56.1114 29.6376C57.1831 30.0195 58.4294 30.2099 59.8497 30.2099C61.9069 30.2099 62.936 29.6232 62.936 28.4488C62.936 27.9503 62.7546 27.5684 62.3928 27.3042C62.0297 27.0401 61.4147 26.8054 60.5452 26.5999L58.8064 26.2036C56.4298 25.7048 54.6619 24.9344 53.5034 23.8921C52.3439 22.8508 51.7646 21.3904 51.7646 19.5116C51.7646 17.4277 52.5971 15.7769 54.2641 14.5586C55.93 13.341 58.1686 12.7314 60.9801 12.7314C62.0231 12.7314 63.0078 12.8126 63.9359 12.9735C64.8628 13.1352 65.6595 13.3775 66.3265 13.7C66.9928 14.0235 67.522 14.4265 67.9132 14.9106C68.3045 15.395 68.5001 15.9606 68.5001 16.6057C68.5001 17.1934 68.3837 17.714 68.1523 18.1686C67.9199 18.6242 67.6154 18.9984 67.2394 19.2914C67.007 19.1449 66.6667 18.9832 66.2179 18.807C65.7681 18.6309 65.2834 18.47 64.7618 18.3228C64.2401 18.1763 63.6891 18.0586 63.1098 17.9705C62.5298 17.8826 61.9939 17.8384 61.5015 17.8384C60.4866 17.8384 59.6975 17.9782 59.1325 18.2568C58.5674 18.5361 58.2848 18.9544 58.2848 19.5116C58.2848 19.923 58.4436 20.2455 58.763 20.4802C59.0815 20.7155 59.6607 20.9358 60.5018 21.1406L62.1535 21.5366C64.79 22.1243 66.6743 22.9752 67.8044 24.0902C68.9347 25.2062 69.4998 26.6438 69.4998 28.4049Z" fill="white"/>
<path fill-rule="evenodd" clip-rule="evenodd" d="M85.0164 18.1026C83.4514 18.1026 82.1181 18.6088 81.0172 19.6216C79.9156 20.6341 79.3655 22.1243 79.3655 24.0902C79.3655 26.0571 79.8938 27.5242 80.952 28.4928C82.0095 29.4616 83.3495 29.9457 84.973 29.9457C85.8998 29.9457 86.7183 29.8214 87.4287 29.5716C88.1386 29.3228 88.7395 29.0653 89.2327 28.8012C89.7252 29.183 90.1088 29.5867 90.3846 30.0118C90.6596 30.4378 90.7976 30.9585 90.7976 31.5747C90.7976 32.6908 90.2174 33.5856 89.0589 34.2604C87.8994 34.9353 86.291 35.2729 84.2339 35.2729C82.4952 35.2729 80.9086 35.0376 79.4741 34.5686C78.0396 34.0995 76.8151 33.3952 75.801 32.4554C74.7861 31.5164 74.0036 30.3497 73.4538 28.9551C72.9027 27.5617 72.6279 25.9394 72.6279 24.0902C72.6279 22.1826 72.9321 20.5241 73.5406 19.1151C74.1492 17.7063 74.9751 16.5329 76.0184 15.5932C77.0617 14.6542 78.2788 13.9498 79.6697 13.4798C81.0609 13.0108 82.5236 12.7754 84.0601 12.7754C86.0596 12.7754 87.6312 13.1429 88.7765 13.876C89.9208 14.6102 90.4934 15.5346 90.4934 16.6496C90.4934 17.178 90.3696 17.6624 90.124 18.1026C89.8771 18.5428 89.5805 18.9246 89.2327 19.2472C88.7113 18.9544 88.095 18.6903 87.3853 18.4549C86.6747 18.2203 85.8856 18.1026 85.0164 18.1026Z" fill="white"/>
<path fill-rule="evenodd" clip-rule="evenodd" d="M104.315 18.0586C102.953 18.0586 101.895 18.5726 101.142 19.5995C100.388 20.6274 100.012 22.0947 100.012 24.0023C100.012 25.969 100.382 27.4584 101.121 28.4709C101.859 29.4837 102.925 29.9899 104.315 29.9899C105.706 29.9899 106.771 29.4767 107.51 28.4488C108.249 27.4219 108.619 25.9394 108.619 24.0023C108.619 22.1243 108.242 20.6639 107.489 19.6216C106.735 18.5803 105.677 18.0586 104.315 18.0586ZM115.4 24.0023C115.4 25.7346 115.139 27.2975 114.618 28.6912C114.096 30.0855 113.349 31.2666 112.379 32.2352C111.407 33.2037 110.241 33.9523 108.88 34.4807C107.517 35.009 105.996 35.2732 104.315 35.2732C102.634 35.2732 101.105 35.0157 99.7295 34.5025C98.3528 33.9895 97.179 33.2479 96.2086 32.2794C95.2371 31.3108 94.4916 30.1297 93.97 28.7351C93.4483 27.3415 93.1875 25.7634 93.1875 24.0023C93.1875 22.3006 93.4549 20.752 93.9918 19.3574C94.5274 17.9638 95.2807 16.782 96.2519 15.8131C97.2224 14.8446 98.3962 14.0963 99.7731 13.5679C101.149 13.0396 102.664 12.7754 104.315 12.7754C105.967 12.7754 107.474 13.0396 108.836 13.5679C110.198 14.0963 111.364 14.8523 112.335 15.8352C113.306 16.8192 114.059 18.0003 114.596 19.3795C115.132 20.7595 115.4 22.3006 115.4 24.0023Z" fill="white"/>
<path fill-rule="evenodd" clip-rule="evenodd" d="M126.006 34.9523C125.716 35.0405 125.311 35.1207 124.789 35.1944C124.267 35.2672 123.687 35.3047 123.05 35.3047C121.746 35.3047 120.804 35.0911 120.225 34.6661C119.644 34.2413 119.355 33.4115 119.355 32.1788V18.7505C119.355 17.9292 119.558 17.2248 119.964 16.6371C120.369 16.0505 120.934 15.5365 121.659 15.0963C122.616 14.5096 123.767 14.0473 125.115 13.7094C126.462 13.3725 127.875 13.2031 129.353 13.2031C132.367 13.2031 133.874 14.231 133.874 16.2851C133.874 16.7846 133.801 17.2392 133.656 17.6499C133.511 18.0613 133.352 18.4136 133.178 18.7063C132.511 18.5601 131.7 18.4864 130.744 18.4864C129.903 18.4864 129.063 18.5897 128.223 18.7945C127.382 19.0003 126.643 19.2789 126.006 19.631V34.9523Z" fill="white"/>
<path fill-rule="evenodd" clip-rule="evenodd" d="M146.002 17.7505C144.756 17.7505 143.72 18.1401 142.894 18.9172C142.068 19.6953 141.583 20.8181 141.438 22.2852L149.741 20.9204C149.682 20.1576 149.349 19.4388 148.741 18.763C148.132 18.0884 147.219 17.7505 146.002 17.7505ZM141.873 26.8201C142.278 28.0528 142.988 28.9265 144.003 29.4397C145.017 29.9537 146.19 30.2102 147.523 30.2102C148.741 30.2102 149.885 30.0416 150.958 29.7037C152.029 29.3667 152.899 28.9926 153.566 28.5812C154.001 28.8749 154.362 29.2568 154.652 29.7258C154.942 30.1958 155.087 30.7097 155.087 31.2666C155.087 31.9424 154.884 32.5291 154.479 33.0277C154.072 33.5275 153.515 33.9456 152.805 34.2825C152.094 34.6194 151.254 34.8692 150.284 35.0311C149.312 35.1917 148.248 35.2732 147.089 35.2732C145.378 35.2732 143.799 35.0311 142.351 34.5467C140.902 34.0625 139.656 33.3435 138.613 32.3894C137.569 31.4362 136.75 30.2397 136.157 28.8012C135.562 27.3636 135.266 25.6753 135.266 23.7381C135.266 21.8604 135.562 20.2314 136.157 18.8512C136.75 17.4719 137.548 16.3273 138.548 15.4171C139.547 14.5079 140.692 13.8398 141.982 13.414C143.271 12.9889 144.596 12.7754 145.959 12.7754C147.437 12.7754 148.791 13.0033 150.023 13.4579C151.254 13.9135 152.312 14.5519 153.196 15.3729C154.08 16.1953 154.768 17.1782 155.261 18.3228C155.753 19.4676 156 20.7155 156 22.0652C156 23.005 155.753 23.7093 155.261 24.1783C154.768 24.6483 154.072 24.9565 153.175 25.103L141.873 26.8201Z" fill="white"/>
<path fill-rule="evenodd" clip-rule="evenodd" d="M12.3497 35.207C11.8281 35.2798 11.2478 35.317 10.611 35.317C9.30683 35.317 8.36477 35.1037 7.78551 34.6787C7.20528 34.2536 6.91602 33.4238 6.91602 32.1911V6.34743C7.23469 6.25929 7.6551 6.1714 8.17675 6.08326C8.6984 5.99537 9.27766 5.95117 9.9155 5.95117C11.2196 5.95117 12.1541 6.1714 12.7191 6.61161C13.2842 7.05182 13.5668 7.88829 13.5668 9.12127V13.5805C14.1755 13.2875 14.8633 13.0454 15.6316 12.854C16.3989 12.6635 17.2323 12.568 18.131 12.568C20.9131 12.568 23.093 13.28 24.673 14.7032C26.2521 16.1274 27.042 18.2626 27.042 21.1089V34.9649C26.752 35.0528 26.3465 35.1333 25.8248 35.207C25.3034 35.2798 24.7232 35.317 24.0861 35.317C22.7822 35.317 21.8399 35.1037 21.2607 34.6787C20.6807 34.2536 20.3914 33.4238 20.3914 32.1911V21.5052C20.3914 20.1846 20.0654 19.2456 19.4133 18.6877C18.7612 18.1305 17.9278 17.8509 16.9139 17.8509C16.2469 17.8509 15.6382 17.9468 15.0881 18.1372C14.5373 18.3286 14.0299 18.5556 13.5668 18.8197V34.9649C13.2768 35.0528 12.8714 35.1333 12.3497 35.207Z" fill="black"/>
<mask id="mask1_279_9469" style="mask-type:alpha" maskUnits="userSpaceOnUse" x="31" y="4" width="9" height="10">
<path d="M35.5406 4.79102L39.021 8.31641L39.0642 8.36222C39.5395 8.8902 39.5251 9.7089 39.021 10.2195L35.5406 13.7446L32.0601 10.2195L32.0169 10.1737C31.5416 9.64546 31.556 8.82676 32.0601 8.31641L35.5406 4.79102Z" fill="white"/>
</mask>
<g mask="url(#mask1_279_9469)">
<path d="M35.5406 4.79102L39.021 8.31641L39.0642 8.36222C39.5395 8.8902 39.5251 9.7089 39.021 10.2195L35.5406 13.7446L32.0601 10.2195L32.0169 10.1737C31.5416 9.64546 31.556 8.82676 32.0601 8.31641L35.5406 4.79102Z" fill="black"/>
</g>
<path fill-rule="evenodd" clip-rule="evenodd" d="M38.822 34.9647C38.532 35.0528 38.1265 35.133 37.6049 35.2067C37.0832 35.2795 36.503 35.317 35.8661 35.317C34.562 35.317 33.6276 35.1035 33.0625 34.6784C32.4972 34.2536 32.2148 33.4238 32.2148 32.1911V15.9744C32.5041 15.8865 32.9103 15.7984 33.4319 15.7102C33.9536 15.6223 34.5329 15.5781 35.1707 15.5781C36.4748 15.5781 37.4093 15.7984 37.9743 16.2386C38.5394 16.6788 38.822 17.5155 38.822 18.7482V34.9647Z" fill="black"/>
</svg>
