<svg width="16" height="16" viewBox="0 0 16 16" fill="none" xmlns="http://www.w3.org/2000/svg">
<path d="M15.6979 1.02318C15.425 0.791364 14.9963 0.758195 14.5531 0.936433H14.5523C14.0862 1.12378 1.35736 6.59268 0.839183 6.81611C0.744936 6.84892 -0.0781813 7.15655 0.00660485 7.8418C0.0822938 8.45962 0.743844 8.7155 0.824628 8.74502L4.06069 9.85491C4.27539 10.5708 5.06685 13.2119 5.24188 13.7762C5.35105 14.1279 5.52899 14.5901 5.84084 14.6852C6.11448 14.7909 6.38667 14.6943 6.5628 14.5558L8.54126 12.7177L11.7351 15.2126L11.8112 15.2582C12.028 15.3544 12.2358 15.4025 12.4341 15.4025C12.5873 15.4025 12.7344 15.3737 12.8748 15.3162C13.3533 15.1193 13.5447 14.6626 13.5648 14.6109L15.9504 2.18993C16.096 1.52655 15.8936 1.18903 15.6979 1.02318ZM6.91468 10.2989L5.82301 13.2148L4.73134 9.56988L13.1008 3.37345L6.91468 10.2989Z" fill="#27002B"/>
</svg>
