<svg width="341" height="579" viewBox="0 0 341 579" fill="none" xmlns="http://www.w3.org/2000/svg">
<path d="M340.667 72.9999L301.588 38.6475H39.0785L0 72.9999V113.443H340.667V72.9999Z" fill="url(#paint0_linear_502_11834)"/>
<path d="M254.686 0.000976562H85.3137C51.0798 0.000976562 23.3333 22.7195 23.3333 50.7499V440.016L170 517.001L316.667 440.016V50.7499C316.667 22.7195 288.92 0.000976562 254.686 0.000976562Z" fill="url(#paint1_linear_502_11834)"/>
<path d="M317 420L170 515.278L23 420V478.287C23 481.676 24.7168 484.835 27.5611 486.679L164.561 575.475C167.87 577.619 172.13 577.619 175.439 575.475L312.439 486.679C315.283 484.835 317 481.676 317 478.287V420Z" fill="url(#paint2_linear_502_11834)"/>
<path d="M316.922 108.799L170.333 204.32L23.7451 108.799V172.684L170.333 268.205L316.922 172.684V108.799Z" fill="#FFF0CB"/>
<path d="M0 72.999V143.413L170.333 254.357L224.351 219.172L0 72.999Z" fill="url(#paint3_linear_502_11834)"/>
<path d="M340.667 72.999L170.333 183.987L224.351 219.172L340.667 143.413V72.999Z" fill="url(#paint4_linear_502_11834)"/>
<mask id="mask0_502_11834" style="mask-type:alpha" maskUnits="userSpaceOnUse" x="85" y="213" width="173" height="93">
<rect x="85.3335" y="213.001" width="172.333" height="92.3333" fill="#D9D9D9"/>
</mask>
<g mask="url(#mask0_502_11834)">
<circle cx="169.834" cy="201.836" r="74.5" fill="#FFF0CB"/>
</g>
<defs>
<linearGradient id="paint0_linear_502_11834" x1="170.333" y1="12.3135" x2="170.333" y2="85.2248" gradientUnits="userSpaceOnUse">
<stop stop-color="#FFC800"/>
<stop offset="0.21" stop-color="#FEC300"/>
<stop offset="0.44" stop-color="#FDB400"/>
<stop offset="0.7" stop-color="#FA9D00"/>
<stop offset="0.96" stop-color="#F77C00"/>
<stop offset="1" stop-color="#F77700"/>
</linearGradient>
<linearGradient id="paint1_linear_502_11834" x1="170" y1="89.8587" x2="170" y2="2286.54" gradientUnits="userSpaceOnUse">
<stop stop-color="white"/>
<stop offset="1" stop-color="#EDBCF4"/>
</linearGradient>
<linearGradient id="paint2_linear_502_11834" x1="170" y1="416.11" x2="170" y2="578.344" gradientUnits="userSpaceOnUse">
<stop stop-color="#FFC800"/>
<stop offset="0.21" stop-color="#FEC300"/>
<stop offset="0.44" stop-color="#FDB400"/>
<stop offset="0.7" stop-color="#FA9D00"/>
<stop offset="0.96" stop-color="#F77C00"/>
<stop offset="1" stop-color="#F77700"/>
</linearGradient>
<linearGradient id="paint3_linear_502_11834" x1="24.0955" y1="156.426" x2="390.787" y2="199.967" gradientUnits="userSpaceOnUse">
<stop stop-color="#FFC800"/>
<stop offset="0.21" stop-color="#FEC300"/>
<stop offset="0.44" stop-color="#FDB400"/>
<stop offset="0.7" stop-color="#FA9D00"/>
<stop offset="0.96" stop-color="#F77C00"/>
<stop offset="1" stop-color="#F77700"/>
</linearGradient>
<linearGradient id="paint4_linear_502_11834" x1="302.201" y1="116.947" x2="215.751" y2="203.428" gradientUnits="userSpaceOnUse">
<stop stop-color="#FFC800"/>
<stop offset="0.21" stop-color="#FEC300"/>
<stop offset="0.44" stop-color="#FDB400"/>
<stop offset="0.7" stop-color="#FA9D00"/>
<stop offset="0.96" stop-color="#F77C00"/>
<stop offset="1" stop-color="#F77700"/>
</linearGradient>
</defs>
</svg>
