<svg width="16" height="14" viewBox="0 0 16 14" fill="none" xmlns="http://www.w3.org/2000/svg">
<path d="M16.0001 1.7929C15.4116 2.05332 14.7787 2.2304 14.1147 2.30853C14.7918 1.90227 15.3126 1.25904 15.5574 0.49341C14.9246 0.868412 14.2215 1.14185 13.4741 1.29029C12.8751 0.652265 12.0209 0.251221 11.0782 0.251221C9.26569 0.251221 7.79432 1.72258 7.79432 3.5351C7.79432 3.79291 7.82297 4.04291 7.88026 4.2825C5.15108 4.14708 2.73179 2.83978 1.11459 0.852787C0.830735 1.33717 0.669275 1.90227 0.669275 2.50384C0.669275 3.64187 1.2474 4.64708 2.13022 5.23563C1.59116 5.2174 1.08595 5.07157 0.643234 4.82417C0.643234 4.83979 0.643234 4.85281 0.643234 4.86584C0.643234 6.45699 1.77345 7.78513 3.27606 8.08461C3.00002 8.16013 2.71096 8.2018 2.41148 8.2018C2.20054 8.2018 1.9922 8.18096 1.79428 8.1419C2.21095 9.4466 3.4245 10.3945 4.85941 10.4232C3.73701 11.3034 2.32033 11.8268 0.783859 11.8268C0.518233 11.8268 0.257814 11.8112 0 11.7799C1.45314 12.7122 3.17711 13.2565 5.03128 13.2565C11.0704 13.2565 14.3725 8.25388 14.3725 3.91531C14.3725 3.77468 14.3673 3.63145 14.3621 3.49083C15.0027 3.02728 15.56 2.44915 16.0001 1.7929Z" fill="#27002B"/>
</svg>
